<svg width="24" height="28" viewBox="0 0 24 28" fill="none" xmlns="http://www.w3.org/2000/svg">
<path d="M10.79 11.8131C10.3774 12.0603 10.0446 12.429 9.83389 12.8725C9.62316 13.3161 9.54387 13.8145 9.60607 14.3048C9.66826 14.7951 9.86915 15.2552 10.1833 15.627C10.4975 15.9988 10.9108 16.2655 11.3711 16.3935C11.8313 16.5215 12.3178 16.5049 12.7689 16.346C13.2201 16.187 13.6157 15.8927 13.9058 15.5004C14.1958 15.1081 14.3673 14.6353 14.3984 14.1418C14.4295 13.6483 14.319 13.1564 14.0807 12.7281C13.7612 12.1539 13.2351 11.7349 12.6179 11.5633C12.0008 11.3917 11.3433 11.4815 10.79 11.8131ZM21.5876 14.5258C21.4294 14.3382 21.2625 14.1501 21.0869 13.9615C21.2096 13.8277 21.3283 13.694 21.443 13.5604C23.6091 11.0344 24.5233 8.50124 23.6762 6.97828C22.864 5.51808 20.4477 5.08294 17.4228 5.69338C17.1249 5.75388 16.8286 5.82212 16.5339 5.89811C16.4775 5.69629 16.4175 5.49562 16.3539 5.29611C15.3277 2.08658 13.67 -0.00110556 11.9758 4.39229e-07C10.3511 0.000770437 8.78092 1.95592 7.77924 4.98049C7.68069 5.27886 7.58952 5.57973 7.50573 5.88308C7.30872 5.83291 7.11088 5.78657 6.91222 5.74406C3.72071 5.06397 1.15014 5.51188 0.304686 7.03569C-0.506006 8.49695 0.341822 10.8854 2.3665 13.2966C2.5673 13.5352 2.77378 13.7684 2.98594 13.9963C2.73583 14.2637 2.49899 14.5309 2.27824 14.7967C0.302636 17.1739 -0.496712 19.5233 0.312672 20.9782C1.14857 22.4811 3.68297 22.9723 6.76772 22.3423C7.01772 22.2909 7.26633 22.233 7.51356 22.1687C7.60412 22.4969 7.70347 22.8221 7.8116 23.1445C8.80887 26.1084 10.3703 28.0006 11.9892 28C13.661 27.999 15.3371 25.966 16.3525 22.8778C16.4327 22.6337 16.5086 22.3803 16.5806 22.1193C16.8999 22.2018 17.2214 22.275 17.5448 22.3388C20.517 22.9225 22.8764 22.4634 23.6843 21.0074C24.5186 19.5035 23.6584 16.981 21.5876 14.5258ZM1.3034 7.63255C1.82389 6.69456 3.92465 6.32861 6.68024 6.91576C6.85636 6.95334 7.03548 6.99534 7.21762 7.04176C6.94859 8.27692 6.75876 9.52925 6.64938 10.7905C5.6551 11.5165 4.70714 12.3085 3.81143 13.1615C3.61409 12.9497 3.42201 12.7327 3.23521 12.5107C1.50042 10.4447 0.814842 8.51311 1.3034 7.63255ZM6.54614 15.6519C5.85744 15.1106 5.2174 14.5561 4.63648 13.9985C5.21699 13.4442 5.85744 12.8916 6.54473 12.3519C6.52004 12.9017 6.5078 13.452 6.50802 14.0027C6.50838 14.5526 6.52109 15.1023 6.54614 15.6519ZM6.54531 21.1687C5.37617 21.4385 4.16916 21.4827 2.9846 21.2991C2.65987 21.2728 2.34378 21.1778 2.05585 21.0197C1.76793 20.8617 1.51429 20.6441 1.3106 20.3803C0.819509 19.4973 1.46136 17.6111 3.15094 15.5779C3.36336 15.3231 3.58274 15.075 3.80909 14.8335C4.70493 15.691 5.65444 16.4861 6.65139 17.2136C6.76227 18.491 6.95433 19.7593 7.22631 21.0104C7.00061 21.069 6.77361 21.1217 6.54531 21.1687ZM16.1241 9.91362C15.6716 9.61776 15.2136 9.33139 14.7501 9.05452C14.2939 8.78198 13.8322 8.51968 13.365 8.26762C14.1649 7.91856 14.9512 7.62043 15.7103 7.37749C15.8892 8.21511 16.0273 9.06156 16.1241 9.91362ZM8.86915 5.36928C9.72737 2.77769 10.9972 1.19655 11.9764 1.19612C13.0192 1.1956 14.3741 2.90167 15.2601 5.67278C15.3176 5.85343 15.372 6.03509 15.4233 6.21777C14.2593 6.59246 13.1205 7.04668 12.0144 7.57745C10.9128 7.04043 9.77762 6.58115 8.61649 6.20274C8.69411 5.92281 8.77833 5.64499 8.86915 5.36928ZM8.32909 7.36258C9.12087 7.62129 9.89958 7.92127 10.6623 8.26138C9.71726 8.76752 8.7967 9.31884 7.90056 9.91533C8.00882 9.02213 8.15288 8.16636 8.32909 7.36258ZM7.90253 18.0875C8.34942 18.3844 8.80285 18.6704 9.2628 18.9453C9.73199 19.2257 10.2074 19.4943 10.6891 19.7511C9.92059 20.103 9.13519 20.4137 8.336 20.682C8.15775 19.8671 8.01211 18.9962 7.90253 18.0875ZM15.2617 22.4912C14.9029 23.6772 14.3368 24.7845 13.5917 25.7577C13.4075 26.0365 13.1702 26.2733 12.8945 26.4531C12.6188 26.633 12.3104 26.7523 11.9885 26.8036C11.0062 26.8042 9.75251 25.2846 8.89965 22.75C8.79921 22.4503 8.70681 22.1479 8.62244 21.8428C9.78912 21.4522 10.9289 20.9799 12.0341 20.4292C13.1493 20.9634 14.2972 21.4211 15.4702 21.7991C15.4062 22.0315 15.3367 22.2622 15.2617 22.4912ZM15.7504 20.6373C14.9826 20.3909 14.1848 20.0878 13.3734 19.7336C13.8308 19.4837 14.2916 19.2199 14.7557 18.942C15.2319 18.6566 15.6959 18.364 16.1479 18.0643C16.0578 18.9285 15.9252 19.7873 15.7504 20.6373ZM16.3524 13.9976C16.3534 14.8478 16.3278 15.6973 16.2756 16.5462C15.6111 17.013 14.9094 17.4688 14.1794 17.9062C13.4525 18.3418 12.7322 18.7421 12.0256 19.1044C11.2821 18.7346 10.5529 18.3361 9.83799 17.9088C9.12714 17.4842 8.4326 17.032 7.75436 16.5522C7.69237 15.7036 7.66114 14.8535 7.66067 14.0018C7.6601 13.1508 7.69081 12.3008 7.75248 11.4515C8.41688 10.9806 9.1134 10.5252 9.83354 10.0937C10.557 9.6601 11.2863 9.26148 12.0116 8.90019C12.746 9.27061 13.4671 9.66758 14.175 10.0911C14.8854 10.5148 15.5818 10.9622 16.2645 11.4332C16.3231 12.2867 16.3523 13.1415 16.3524 13.9976ZM17.6429 6.86762C20.2346 6.34442 22.1887 6.69638 22.6782 7.57633C23.1997 8.5138 22.4523 10.5842 20.5823 12.7652C20.4789 12.8855 20.3717 13.0064 20.2606 13.1278C19.3494 12.2729 18.3832 11.4834 17.3686 10.7648C17.2662 9.51733 17.0835 8.2784 16.8217 7.05629C17.1007 6.98503 17.3745 6.92214 17.6429 6.86762ZM17.4677 12.3062C18.152 12.8248 18.81 13.3798 19.4389 13.9692C18.8128 14.5682 18.1569 15.1328 17.474 15.6608C17.4949 15.1065 17.5052 14.5519 17.5048 13.997C17.5046 13.4333 17.4922 12.8697 17.4677 12.3062ZM22.6854 20.4104C22.1951 21.294 20.3007 21.6625 17.7589 21.1634C17.4676 21.1063 17.1687 21.0384 16.8622 20.9596C17.1177 19.7218 17.2924 18.4674 17.3849 17.2052C18.3977 16.474 19.3609 15.6713 20.2676 14.8029C20.4263 14.974 20.5772 15.1443 20.7203 15.3137C21.5311 16.2287 22.1727 17.2907 22.613 18.4467C22.7537 18.7515 22.8328 19.083 22.8453 19.4208C22.8577 19.7585 22.8033 20.0954 22.6854 20.4104Z" fill="#FAFAFA"/>
</svg>
