<svg width="15" height="10" viewBox="0 0 15 10" fill="none" xmlns="http://www.w3.org/2000/svg">
<path d="M0.997606 4.42531C0.652431 4.42664 0.373683 4.70753 0.375005 5.0527C0.376327 5.39788 0.657218 5.67663 1.00239 5.6753L0.997606 4.42531ZM14.5796 5.44025C14.8227 5.19524 14.8212 4.79951 14.5762 4.55637L10.5835 0.594156C10.3385 0.351015 9.94281 0.35253 9.69966 0.597541C9.45652 0.842551 9.45804 1.23828 9.70305 1.48142L13.2521 5.00339L9.73013 8.55243C9.48699 8.79744 9.48851 9.19317 9.73352 9.43631C9.97853 9.67945 10.3743 9.67794 10.6174 9.43293L14.5796 5.44025ZM1.00239 5.6753L14.1384 5.625L14.1336 4.375L0.997606 4.42531L1.00239 5.6753Z" fill="#FAFAFA"/>
</svg>
