<svg width="25" height="19" viewBox="0 0 25 19" fill="none" xmlns="http://www.w3.org/2000/svg">
<path d="M22.234 0.0241569L12.3152 0.0483137L2.39636 0H2.39153C1.05807 0 0 1.25133 0 2.81669V15.929C0 17.4944 1.05807 18.7457 2.39153 18.7457H22.2485C23.5819 18.7457 24.64 17.4944 24.64 15.929V2.81669C24.64 1.25133 23.5916 0.0241569 22.234 0.0241569ZM21.4561 1.95671L12.5954 10.0589L12.5616 10.0879L12.5326 10.1217C12.4263 10.2377 12.3007 10.2522 12.233 10.2522C12.1654 10.2522 12.0398 10.2328 11.9383 10.1121L11.9093 10.0782L3.43994 1.91805L12.3152 1.97603L21.4561 1.95671ZM22.2485 16.8132H2.39153C2.22243 16.8132 1.93255 16.4943 1.93255 15.929V3.1259L10.5131 11.4165C10.9479 11.8997 11.5615 12.1799 12.2137 12.1896H12.2427C12.8853 12.1896 13.4844 11.9238 13.924 11.46L22.7171 3.41095V15.929C22.7075 16.4943 22.4176 16.8132 22.2485 16.8132Z" fill="white"/>
</svg>
