<svg width="20" height="30" viewBox="0 0 20 30" fill="none" xmlns="http://www.w3.org/2000/svg">
<g id="figma">
<path id="Vector" d="M14.6874 20.4137C11.7599 20.4137 9.37744 17.985 9.37744 14.9987C9.37744 12.0125 11.7599 9.58374 14.6874 9.58374C17.6149 9.58374 19.9974 12.0125 19.9974 14.9987C19.9974 17.985 17.6149 20.4137 14.6874 20.4137ZM14.6874 10.8337C12.4487 10.8337 10.6274 12.7025 10.6274 14.9987C10.6274 17.295 12.4487 19.1637 14.6874 19.1637C16.9262 19.1637 18.7474 17.295 18.7474 14.9987C18.7474 12.7025 16.9262 10.8337 14.6874 10.8337Z" fill="#FAFAFA"/>
<path id="Vector_2" d="M5.31127 30C2.38252 30 2.51965e-05 27.5712 2.51965e-05 24.585C2.51965e-05 22.5075 1.15128 20.6987 2.83628 19.79C1.97561 19.3214 1.25763 18.6289 0.758345 17.7857C0.25906 16.9425 -0.00295827 15.9799 2.51965e-05 15C2.51965e-05 12.925 1.15253 11.1175 2.83878 10.2075C1.97744 9.73886 1.25887 9.04602 0.759131 8.20235C0.259396 7.35868 -0.00289645 6.39557 2.51965e-05 5.415C2.51965e-05 2.42875 2.38252 0 5.31127 0H14.69C17.6175 0 20 2.43125 20 5.42C20 8.40625 17.6175 10.835 14.6888 10.835L10.6213 10.8337V24.585C10.6213 27.5712 8.23877 30 5.31127 30ZM5.31127 20.415C3.07252 20.415 1.25003 22.2862 1.25003 24.585C1.25003 26.8812 3.07252 28.75 5.31127 28.75C7.55002 28.75 9.37253 26.8812 9.37253 24.585V10.2087C9.37253 10.043 9.43837 9.88402 9.55558 9.76681C9.67279 9.6496 9.83177 9.58375 9.99753 9.58375H14.69C15.7725 9.58375 16.79 9.1525 17.555 8.36875C18.3263 7.58164 18.7557 6.52196 18.75 5.42C18.75 3.12125 16.9275 1.25 14.6888 1.25H5.31127C3.07252 1.25 1.25003 3.11875 1.25003 5.415C1.25003 7.71125 3.07252 9.58 5.31127 9.58C5.47704 9.57983 5.63607 9.64552 5.7534 9.76262C5.87073 9.87971 5.93673 10.0386 5.9369 10.2044C5.93707 10.3701 5.87138 10.5292 5.75428 10.6465C5.63719 10.7638 5.47829 10.8298 5.31252 10.83C3.07253 10.835 1.25003 12.7063 1.25003 15C1.25003 17.2962 3.07252 19.165 5.31127 19.165C5.47704 19.165 5.63601 19.2308 5.75322 19.3481C5.87043 19.4653 5.93627 19.6242 5.93627 19.79C5.93627 19.9558 5.87043 20.1147 5.75322 20.2319C5.63601 20.3492 5.47704 20.415 5.31127 20.415Z" fill="#FAFAFA"/>
</g>
</svg>
