<svg width="29" height="28" viewBox="0 0 29 28" fill="none" xmlns="http://www.w3.org/2000/svg">
<path id="Vector" d="M14.3541 0C10.9457 0.000141338 7.64856 1.21308 5.05263 3.4218C2.4567 5.63051 0.731382 8.69086 0.185398 12.0553C-0.360585 15.4197 0.308391 18.8686 2.07263 21.7849C3.83686 24.7011 6.58123 26.8945 9.81468 27.9725C10.5324 28.0981 10.8015 27.6675 10.8015 27.2907C10.8015 26.9498 10.7836 25.8194 10.7836 24.6173C7.17709 25.2811 6.24407 23.7381 5.95699 22.9307C5.63844 22.1454 5.13346 21.4495 4.48569 20.9031C3.9833 20.634 3.2656 19.9701 4.46774 19.9522C4.92676 20.002 5.36702 20.1617 5.75119 20.4179C6.13537 20.674 6.45215 21.0189 6.67469 21.4235C6.87101 21.7761 7.135 22.0866 7.45152 22.3371C7.76804 22.5876 8.13088 22.7731 8.51924 22.8831C8.9076 22.9932 9.31385 23.0255 9.71471 22.9782C10.1156 22.9309 10.5032 22.805 10.8553 22.6077C10.9174 21.8779 11.2427 21.1957 11.7704 20.6879C8.57661 20.329 5.23928 19.0909 5.23928 13.6005C5.21911 12.174 5.74553 10.7937 6.71058 9.74288C6.27175 8.503 6.32309 7.14233 6.85412 5.93905C6.85412 5.93905 8.05623 5.56224 10.8015 7.41034C13.1502 6.76437 15.6298 6.76437 17.9785 7.41034C20.7237 5.54431 21.9259 5.93905 21.9259 5.93905C22.457 7.14231 22.5084 8.50301 22.0695 9.74288C23.0374 10.7919 23.5643 12.1734 23.5407 13.6005C23.5407 19.1089 20.1855 20.329 16.9917 20.6879C17.3343 21.0351 17.5981 21.4519 17.7653 21.9101C17.9324 22.3683 17.9991 22.8572 17.9606 23.3434C17.9606 25.2633 17.9426 26.8063 17.9426 27.2908C17.9426 27.6676 18.2118 28.1161 18.9295 27.9726C22.1572 26.8858 24.8937 24.6873 26.6504 21.7695C28.4072 18.8517 29.0698 15.4046 28.52 12.0434C27.9702 8.68228 26.2439 5.6259 23.6491 3.41988C21.0543 1.21385 17.7599 0.0017726 14.3541 0Z" fill="#FAFAFA"/>
</svg>
