<svg width="28" height="28" viewBox="0 0 28 28" fill="none" xmlns="http://www.w3.org/2000/svg">
<g clip-path="url(#clip0_26_385)">
<path d="M27.0182 6.38832C27.0282 6.42542 27.0333 6.46368 27.0334 6.50211V12.4757C27.0334 12.5523 27.0132 12.6276 26.9748 12.694C26.9363 12.7603 26.8811 12.8154 26.8146 12.8535L21.8009 15.7401V21.4616C21.8009 21.6173 21.7181 21.761 21.5831 21.8394L11.1174 27.8642C11.0934 27.8778 11.0673 27.8865 11.0412 27.8957C11.0314 27.899 11.0221 27.905 11.0118 27.9077C10.9386 27.927 10.8617 27.927 10.7885 27.9077C10.7766 27.9044 10.7657 27.8979 10.7542 27.8936C10.7303 27.8848 10.7053 27.8772 10.6824 27.8642L0.218863 21.8394C0.152392 21.8012 0.0971605 21.7462 0.0587363 21.6799C0.020312 21.6135 5.26684e-05 21.5382 0 21.4616L0 3.54092C0 3.50172 0.00544436 3.46361 0.0152442 3.42659C0.0185108 3.41407 0.0261329 3.40263 0.0304884 3.39011C0.038655 3.36724 0.0462771 3.34383 0.0582547 3.3226C0.0664212 3.30844 0.0783988 3.29701 0.0881987 3.28395C0.100721 3.26652 0.112154 3.24856 0.126854 3.23331C0.139376 3.22079 0.155709 3.21153 0.169864 3.20065C0.185653 3.18758 0.199808 3.17342 0.217775 3.16308L5.45035 0.150714C5.5166 0.112593 5.59169 0.0925293 5.66813 0.0925293C5.74456 0.0925293 5.81965 0.112593 5.8859 0.150714L11.1179 3.16308H11.119C11.1364 3.17397 11.1511 3.18758 11.1669 3.2001C11.1811 3.21099 11.1969 3.22079 11.2094 3.23277C11.2246 3.24856 11.2355 3.26652 11.2486 3.28395C11.2579 3.29701 11.2704 3.30844 11.278 3.3226C11.2905 3.34438 11.2976 3.36724 11.3063 3.39011C11.3107 3.40263 11.3183 3.41407 11.3216 3.42713C11.3316 3.46423 11.3367 3.50249 11.3368 3.54092V14.734L15.6966 12.2236V6.50156C15.6966 6.46345 15.7021 6.4248 15.7119 6.38832C15.7157 6.37525 15.7228 6.36382 15.7271 6.3513C15.7358 6.32843 15.7435 6.30502 15.7554 6.28379C15.7636 6.26963 15.7756 6.2582 15.7848 6.24513C15.7979 6.22771 15.8088 6.20975 15.824 6.1945C15.8366 6.18198 15.8524 6.17272 15.8665 6.16184C15.8828 6.14877 15.897 6.13461 15.9144 6.12427L21.1475 3.1119C21.2138 3.07373 21.2889 3.05363 21.3653 3.05363C21.4418 3.05363 21.5169 3.07373 21.5831 3.1119L26.8151 6.12427C26.8336 6.13516 26.8478 6.14877 26.8641 6.16129C26.8777 6.17218 26.8935 6.18198 26.906 6.19396C26.9213 6.20975 26.9322 6.22771 26.9452 6.24513C26.955 6.2582 26.967 6.26963 26.9746 6.28379C26.9872 6.30502 26.9942 6.32843 27.003 6.3513C27.0079 6.36382 27.0149 6.37525 27.0182 6.38832ZM26.1613 12.2236V7.25615L24.3303 8.31018L21.8009 9.76655V14.734L26.1618 12.2236H26.1613ZM20.9292 21.2095V16.2388L18.4411 17.6598L11.3363 21.7147V26.7323L20.9292 21.2095ZM0.872187 4.29496V21.2095L10.4641 26.7317V21.7153L5.45307 18.8793L5.45144 18.8782L5.44926 18.8771C5.43238 18.8673 5.41823 18.8532 5.40244 18.8412C5.38883 18.8303 5.37304 18.8216 5.36106 18.8096L5.35998 18.808C5.34582 18.7944 5.33602 18.7775 5.32404 18.7623C5.31315 18.7476 5.30009 18.735 5.29138 18.7198L5.29083 18.7182C5.28103 18.7018 5.27504 18.6822 5.26797 18.6637C5.26089 18.6474 5.25163 18.6321 5.24728 18.6147C5.24183 18.594 5.24074 18.5717 5.23857 18.5505C5.23639 18.5342 5.23203 18.5178 5.23203 18.5015V6.80536L2.70313 5.34845L0.872187 4.29496ZM5.66867 1.03161L1.30937 3.54092L5.66758 6.05023L10.0263 3.54037L5.66758 1.03161H5.66867ZM7.9357 16.6918L10.4646 15.236V4.29496L8.63367 5.34899L6.10422 6.80536V17.7464L7.9357 16.6918ZM21.3653 3.9928L17.0066 6.50211L21.3653 9.01141L25.7235 6.50156L21.3653 3.9928ZM20.9292 9.76655L18.3998 8.31018L16.5688 7.25615V12.2236L19.0977 13.6794L20.9292 14.734V9.76655ZM10.8996 20.9607L17.2929 17.3108L20.4888 15.4869L16.1333 12.9793L11.1185 15.8664L6.54794 18.4977L10.8996 20.9607Z" fill="#FAFAFA"/>
</g>
<defs>
<clipPath id="clip0_26_385">
<rect width="27.0816" height="28" fill="white"/>
</clipPath>
</defs>
</svg>
