<svg width="23" height="28" viewBox="0 0 23 28" fill="none" xmlns="http://www.w3.org/2000/svg">
<path d="M3.55666 28C3.01815 28 2.53024 27.8753 2.13269 27.6061C1.446 27.1434 0.522586 25.9454 2.04233 23.1245C2.89888 21.5361 4.29936 20.2133 6.01247 19.317C5.25155 18.7295 4.44483 18.2037 3.60003 17.7449C1.12976 16.3661 -0.144224 14.2428 0.0129916 11.7635C0.271403 7.72105 4.22889 3.48528 9.86333 1.22464C14.8743 -0.786633 19.907 -0.27704 21.8243 2.43357C22.4948 3.38047 23.6838 6.01157 20.2287 9.95098C18.6602 11.7364 16.3435 12.7881 13.7052 12.911C11.1951 13.0212 8.72488 12.2767 7.38042 11.0027C7.20659 10.8379 7.10518 10.6108 7.0984 10.3714C7.09163 10.1319 7.18004 9.8995 7.34428 9.72509C7.50912 9.55126 7.73614 9.44985 7.97561 9.44308C8.21508 9.4363 8.44747 9.52472 8.62188 9.68895C9.59769 10.6124 11.6126 11.1708 13.622 11.1039C15.7652 11.0045 17.6301 10.1714 18.8698 8.75651C20.7311 6.63501 21.2569 4.75927 20.348 3.47625C19.1426 1.77037 15.2882 0.993331 10.5356 2.89979C5.6113 4.87673 2.02607 8.56857 1.81464 11.8773C1.7026 13.6464 2.62421 15.13 4.48007 16.1655C5.94741 16.9823 7.0678 17.7648 7.88459 18.5454C8.24601 18.4352 8.61465 18.343 8.99052 18.2671C11.3415 17.8063 13.4594 18.1641 14.8129 19.2664C15.7291 20.0146 16.2315 20.9199 16.3019 21.9553C16.4338 23.8745 14.9665 25.4773 14.9033 25.546C14.8226 25.633 14.7255 25.7032 14.6177 25.7527C14.5099 25.8022 14.3934 25.8299 14.2748 25.8344C14.1563 25.8388 14.038 25.8199 13.9268 25.7786C13.8155 25.7373 13.7135 25.6746 13.6266 25.5939C13.5396 25.5132 13.4694 25.4162 13.4199 25.3083C13.3704 25.2005 13.3426 25.084 13.3382 24.9655C13.3338 24.8469 13.3527 24.7286 13.394 24.6174C13.4352 24.5062 13.498 24.4042 13.5787 24.3172C13.8588 24.01 14.5689 23.0107 14.5003 22.071C14.4623 21.5506 14.1913 21.0898 13.6708 20.6669C12.7673 19.9278 11.1102 19.6839 9.3429 20.0399L9.10617 20.0886C9.32844 20.5007 9.47662 20.9163 9.55613 21.3446C9.80551 22.6782 9.3429 24.066 8.17734 25.4683C6.8654 27.0531 5.02761 28 3.55666 28ZM7.34428 20.6814C5.72695 21.4132 4.3843 22.5878 3.63255 23.9811C2.92418 25.2948 2.9549 25.9815 3.14103 26.108C3.62894 26.4387 5.45769 25.9164 6.7877 24.3172C7.60269 23.3323 7.92977 22.4722 7.78159 21.6789C7.70424 21.3204 7.55551 20.9811 7.34428 20.6814Z" fill="#FAFAFA"/>
</svg>
