<svg width="28" height="28" viewBox="0 0 28 28" fill="none" xmlns="http://www.w3.org/2000/svg">
<path id="Slack" d="M0 17.738C0 18.4806 0.294999 19.1928 0.820101 19.7179C1.3452 20.243 2.05739 20.538 2.8 20.538C3.54261 20.538 4.2548 20.243 4.7799 19.7179C5.305 19.1928 5.6 18.4806 5.6 17.738V14.938H2.8C2.05739 14.938 1.3452 15.233 0.820101 15.7581C0.294999 16.2832 0 16.9954 0 17.738ZM17.696 13.062C18.4386 13.062 19.1508 12.767 19.6759 12.2419C20.201 11.7168 20.496 11.0046 20.496 10.262V2.8C20.496 2.05739 20.201 1.3452 19.6759 0.820101C19.1508 0.294999 18.4386 0 17.696 0C16.9534 0 16.2412 0.294999 15.7161 0.820101C15.191 1.3452 14.896 2.05739 14.896 2.8V10.262C14.896 10.6321 14.9693 10.9985 15.1118 11.34C15.2542 11.6816 15.463 11.9915 15.726 12.2519C15.989 12.5122 16.3009 12.7179 16.6439 12.857C16.9868 12.996 17.3539 13.0657 17.724 13.062H17.696ZM27.944 10.262C27.944 9.51939 27.649 8.8072 27.1239 8.2821C26.5988 7.757 25.8866 7.462 25.144 7.462C24.4014 7.462 23.6892 7.757 23.1641 8.2821C22.639 8.8072 22.344 9.51939 22.344 10.262V13.062H25.144C25.5164 13.0694 25.8865 13.0025 26.2327 12.8652C26.5789 12.7278 26.8942 12.5227 27.1602 12.262C27.4262 12.0012 27.6374 11.69 27.7816 11.3466C27.9258 11.0032 28.0001 10.6345 28 10.262H27.944ZM10.276 14.938C9.53339 14.938 8.8212 15.233 8.2961 15.7581C7.771 16.2832 7.476 16.9954 7.476 17.738V25.2C7.476 25.9426 7.771 26.6548 8.2961 27.1799C8.8212 27.705 9.53339 28 10.276 28C11.0186 28 11.7308 27.705 12.2559 27.1799C12.781 26.6548 13.076 25.9426 13.076 25.2V17.738C13.076 16.9954 12.781 16.2832 12.2559 15.7581C11.7308 15.233 11.0186 14.938 10.276 14.938ZM17.724 22.4H14.924V25.2C14.924 25.7538 15.0882 26.2951 15.3959 26.7556C15.7036 27.2161 16.1409 27.5749 16.6525 27.7869C17.1641 27.9988 17.7271 28.0542 18.2703 27.9462C18.8134 27.8382 19.3123 27.5715 19.7039 27.1799C20.0955 26.7883 20.3622 26.2894 20.4702 25.7463C20.5782 25.2031 20.5228 24.6401 20.3109 24.1285C20.0989 23.6168 19.7401 23.1796 19.2796 22.8719C18.8191 22.5642 18.2778 22.4 17.724 22.4ZM25.2 14.938H17.724C16.9814 14.938 16.2692 15.233 15.7441 15.7581C15.219 16.2832 14.924 16.9954 14.924 17.738C14.924 18.4806 15.219 19.1928 15.7441 19.7179C16.2692 20.243 16.9814 20.538 17.724 20.538H25.2C25.9426 20.538 26.6548 20.243 27.1799 19.7179C27.705 19.1928 28 18.4806 28 17.738C28 16.9954 27.705 16.2832 27.1799 15.7581C26.6548 15.233 25.9426 14.938 25.2 14.938ZM10.276 7.462H2.8C2.05739 7.462 1.3452 7.757 0.820101 8.2821C0.294999 8.8072 0 9.51939 0 10.262C0 11.0046 0.294999 11.7168 0.820101 12.2419C1.3452 12.767 2.05739 13.062 2.8 13.062H10.276C11.0186 13.062 11.7308 12.767 12.2559 12.2419C12.781 11.7168 13.076 11.0046 13.076 10.262C13.076 9.51939 12.781 8.8072 12.2559 8.2821C11.7308 7.757 11.0186 7.462 10.276 7.462ZM10.276 0C9.53339 0 8.8212 0.294999 8.2961 0.820101C7.771 1.3452 7.476 2.05739 7.476 2.8C7.476 3.54261 7.771 4.2548 8.2961 4.7799C8.8212 5.305 9.53339 5.6 10.276 5.6H13.076V2.8C13.076 2.05739 12.781 1.3452 12.2559 0.820101C11.7308 0.294999 11.0186 0 10.276 0Z" fill="#FAFAFA"/>
</svg>
