<svg width="26" height="26" viewBox="0 0 26 26" fill="none" xmlns="http://www.w3.org/2000/svg">
<g clip-path="url(#clip0_179_121)">
<path fill-rule="evenodd" clip-rule="evenodd" d="M24.6353 1.12646H8.2334V9.4898H16.5967V17.8531H24.9601V1.45125C24.9601 1.27189 24.8146 1.12646 24.6353 1.12646Z" fill="white"/>
<path d="M8.89111 5.58984H8.71777V5.76318H8.89111V5.58984Z" fill="white"/>
<path d="M8.2334 9.49023H16.2719C16.4513 9.49023 16.5967 9.63566 16.5967 9.81502V17.8536H8.55819C8.37882 17.8536 8.2334 17.7081 8.2334 17.5288V9.49023Z" fill="#9593FF"/>
<path d="M16.5967 17.8535H24.96L16.8739 25.9522C16.7716 26.0547 16.5967 25.9821 16.5967 25.8372V17.8535Z" fill="#9593FF"/>
<path d="M8.23358 9.4898H0.24988C0.104962 9.4898 0.0324207 9.3149 0.134888 9.21259L8.23358 1.12646V9.4898Z" fill="#9593FF"/>
</g>
<defs>
<clipPath id="clip0_179_121">
<rect width="26" height="26" fill="white"/>
</clipPath>
</defs>
</svg>
