<svg width="21" height="31" viewBox="0 0 21 31" fill="none" xmlns="http://www.w3.org/2000/svg">
<path d="M15.1769 21.0942C12.1519 21.0942 9.68994 18.5845 9.68994 15.4987C9.68994 12.4129 12.1519 9.9032 15.1769 9.9032C18.202 9.9032 20.6639 12.4129 20.6639 15.4987C20.6639 18.5845 18.202 21.0942 15.1769 21.0942ZM15.1769 11.1949C12.8636 11.1949 10.9816 13.1259 10.9816 15.4987C10.9816 17.8715 12.8636 19.8025 15.1769 19.8025C17.4903 19.8025 19.3723 17.8715 19.3723 15.4987C19.3723 13.1259 17.4903 11.1949 15.1769 11.1949Z" fill="#FAFAFA"/>
<path d="M5.48831 31C2.46194 31 2.60364e-05 28.4902 2.60364e-05 25.4045C2.60364e-05 23.2577 1.18965 21.3887 2.93081 20.4496C2.04146 19.9655 1.29955 19.2498 0.783622 18.3785C0.267695 17.5072 -0.00305687 16.5126 2.60364e-05 15.5C2.60364e-05 13.3558 1.19094 11.4881 2.9334 10.5477C2.04335 10.0635 1.30083 9.34754 0.784434 8.47575C0.268042 7.60395 -0.00299299 6.60874 2.60364e-05 5.59549C2.60364e-05 2.5097 2.46194 0 5.48831 0H15.1797C18.2047 0 20.6667 2.51229 20.6667 5.60066C20.6667 8.68644 18.2047 11.1961 15.1784 11.1961L10.9753 11.1949V25.4045C10.9753 28.4902 8.51339 31 5.48831 31ZM5.48831 21.0955C3.17494 21.0955 1.29169 23.0291 1.29169 25.4045C1.29169 27.7772 3.17494 29.7083 5.48831 29.7083C7.80168 29.7083 9.68493 27.7772 9.68493 25.4045V10.549C9.68493 10.3777 9.75297 10.2135 9.87409 10.0924C9.9952 9.97124 10.1595 9.90319 10.3308 9.90319H15.1797C16.2983 9.90319 17.3497 9.45757 18.1402 8.64769C18.9371 7.83435 19.3809 6.73935 19.375 5.60066C19.375 3.22529 17.4917 1.29166 15.1784 1.29166H5.48831C3.17494 1.29166 1.29169 3.2227 1.29169 5.59549C1.29169 7.96828 3.17494 9.89932 5.48831 9.89932C5.65959 9.89915 5.82393 9.96702 5.94517 10.088C6.06641 10.209 6.13462 10.3732 6.13479 10.5445C6.13496 10.7158 6.06708 10.8801 5.94608 11.0014C5.82509 11.1226 5.66089 11.1908 5.4896 11.191C3.17494 11.1961 1.29169 13.1298 1.29169 15.5C1.29169 17.8728 3.17494 19.8038 5.48831 19.8038C5.65959 19.8038 5.82386 19.8718 5.94498 19.993C6.0661 20.1141 6.13414 20.2783 6.13414 20.4496C6.13414 20.6209 6.0661 20.7852 5.94498 20.9063C5.82386 21.0274 5.65959 21.0955 5.48831 21.0955Z" fill="#FAFAFA"/>
</svg>
