<svg width="32" height="19" viewBox="0 0 32 19" fill="none" xmlns="http://www.w3.org/2000/svg">
<path d="M26.4 5.56524C25.2001 5.15708 24.1409 4.42319 23.344 3.44774C22.4657 2.36091 21.3473 1.48689 20.0744 0.892548C18.8015 0.298204 17.4078 -0.000718721 16 0.0186461C14.1062 -0.113816 12.2313 0.463077 10.7488 1.63444C9.26629 2.8058 8.28487 4.48568 8 6.33955C8.56108 5.41234 9.40553 4.68484 10.4118 4.26174C11.4181 3.83864 12.5344 3.74175 13.6 3.98501C14.7979 4.40505 15.8553 5.14321 16.656 6.11832C17.5391 7.19646 18.6597 8.06145 19.9323 8.64745C21.2049 9.23345 22.5961 9.52503 24 9.5C25.8938 9.63246 27.7687 9.05557 29.2512 7.88421C30.7337 6.71285 31.7151 5.03296 32 3.1791C31.4491 4.11739 30.6073 4.85588 29.599 5.28554C28.5906 5.7152 27.4691 5.81326 26.4 5.56524ZM5.6 13.4348C6.79991 13.8429 7.85907 14.5768 8.656 15.5523C9.53432 16.6391 10.6527 17.5131 11.9256 18.1075C13.1985 18.7018 14.5922 19.0007 16 18.9814C17.8938 19.1138 19.7687 18.5369 21.2512 17.3656C22.7337 16.1942 23.7151 14.5143 24 12.6605C23.4389 13.5877 22.5945 14.3152 21.5882 14.7383C20.5819 15.1614 19.4656 15.2583 18.4 15.015C17.2021 14.5949 16.1447 13.8568 15.344 12.8817C14.4585 11.8062 13.3375 10.9431 12.0655 10.3574C10.7934 9.77162 9.40336 9.47848 8 9.5C6.10619 9.36754 4.23133 9.94443 2.74881 11.1158C1.26628 12.2872 0.284867 13.967 0 15.8209C0.550891 14.8826 1.39265 14.1441 2.40101 13.7145C3.40938 13.2848 4.53089 13.1867 5.6 13.4348Z" fill="#FAFAFA"/>
</svg>
